#N canvas 879 315 721 548 10;
#N canvas 816 305 556 403 Tap 1;
#X obj 90 161 t b b;
#X obj 90 205 timer;
#X obj 90 102 bng 15 250 50 0 empty empty empty 0 -6 0 10 -262144 -1
-1;
#X obj 90 247 expr 60000 / $f1;
#X floatatom 90 283 10 0 0 0 - - -;
#N canvas 0 0 1040 834 superTT 0;
#X obj 307 139 t b b;
#X obj 307 183 timer;
#N canvas 0 0 450 300 (subpatch) 0;
#X array \$0-tt 6 float 2;
#X coords 0 1000 6 -1 40 50 1;
#X restore 501 202 graph;
#X obj 530 320 f;
#X msg 572 289 0;
#X obj 557 378 + 1;
#X obj 530 350 t f f;
#X obj 449 376 tabwrite \$0-tt;
#X obj 572 257 loadbang;
#X obj 308 364 until;
#X msg 355 397 0;
#X obj 308 430 f;
#X obj 308 512 tabread \$0-tt;
#X obj 308 541 + 0;
#X obj 308 462 t f f;
#X obj 335 489 + 1;
#X obj 308 567 t f f;
#X obj 220 472 f;
#X obj 308 300 t b b b;
#X msg 388 396 0;
#X obj 307 223 t b b f b;
#X obj 220 612 expr 60000 / $f1;
#X obj 307 92 inlet bang;
#X obj 96 673 outlet ms;
#X obj 220 671 outlet bpm;
#X obj 557 406 sel 6;
#X msg 308 339 6;
#X obj 220 498 / 6;
#X connect 0 0 1 0;
#X connect 0 1 1 1;
#X connect 1 0 20 0;
#X connect 3 0 6 0;
#X connect 4 0 3 1;
#X connect 5 0 25 0;
#X connect 6 0 7 1;
#X connect 6 1 5 0;
#X connect 8 0 4 0;
#X connect 9 0 11 0;
#X connect 10 0 11 1;
#X connect 11 0 14 0;
#X connect 12 0 13 0;
#X connect 13 0 16 0;
#X connect 14 0 12 0;
#X connect 14 1 15 0;
#X connect 15 0 11 1;
#X connect 16 0 17 1;
#X connect 16 1 13 1;
#X connect 17 0 27 0;
#X connect 18 0 26 0;
#X connect 18 1 10 0;
#X connect 18 2 19 0;
#X connect 19 0 13 1;
#X connect 20 0 17 0;
#X connect 20 1 18 0;
#X connect 20 2 7 0;
#X connect 20 3 3 0;
#X connect 21 0 24 0;
#X connect 22 0 0 0;
#X connect 25 0 4 0;
#X connect 25 1 3 1;
#X connect 26 0 9 0;
#X connect 27 0 21 0;
#X connect 27 0 23 0;
#X restore 219 247 pd superTT;
#X floatatom 219 284 8 0 0 3 ms - -;
#X floatatom 276 284 10 0 0 3 bpm - -;
#X obj 75 -25 notein;
#X floatatom 90 17 5 0 0 0 - - -;
#X floatatom 340 97 5 0 0 0 - - -;
#X obj 340 61 bng 15 250 50 0 empty empty empty 17 7 0 10 -262144 -1
-1;
#X obj 91 50 select 127;
#X obj 438 339 outlet;
#X connect 0 0 1 0;
#X connect 0 1 1 1;
#X connect 1 0 3 0;
#X connect 2 0 0 0;
#X connect 2 0 5 0;
#X connect 3 0 4 0;
#X connect 5 0 6 0;
#X connect 5 1 7 0;
#X connect 6 0 13 0;
#X connect 8 1 9 0;
#X connect 9 0 12 0;
#X connect 10 0 7 0;
#X connect 10 0 6 0;
#X connect 10 0 4 0;
#X connect 11 0 10 0;
#X connect 12 1 2 0;
#X restore 79 -29 pd Tap;
#X obj -43 134 hradio 15 1 0 16 empty empty empty 0 -8 0 10 -262144
-1 -1 5;
#X obj -43 98 mod 16;
#X obj -47 -30 tgl 15 0 empty empty empty 17 7 0 10 -262144 -1 -1 1
1;
#X floatatom -1 -17 5 0 0 0 - - -;
#X obj -40 41 metro;
#X obj -41 74 f;
#X obj 37 76 + 1;
#X obj -42 165 select 0 1 2 3 4 5 6 7 8 9 10 11 12 13 14 15;
#X obj -44 334 f;
#X obj -26 196 vsl 15 128 0 127 0 0 empty empty empty 0 -9 0 10 -262144
-1 -1 3500 1;
#X obj -47 388 mtof;
#X obj -6 335 f;
#X obj 12 197 vsl 15 128 0 127 0 0 empty empty empty 0 -9 0 10 -262144
-1 -1 3900 1;
#X obj 31 339 f;
#X obj 47 197 vsl 15 128 0 127 0 0 empty empty empty 0 -9 0 10 -262144
-1 -1 2600 1;
#X obj 65 343 f;
#X obj 78 198 vsl 15 128 0 127 0 0 empty empty empty 0 -9 0 10 -262144
-1 -1 3800 1;
#X obj 101 341 f;
#X obj 108 197 vsl 15 128 0 127 0 0 empty empty empty 0 -9 0 10 -262144
-1 -1 1800 1;
#X obj 132 341 f;
#X obj 145 200 vsl 15 128 0 127 0 0 empty empty empty 0 -9 0 10 -262144
-1 -1 3300 1;
#X obj 168 346 f;
#X obj 176 208 vsl 15 128 0 127 0 0 empty empty empty 0 -9 0 10 -262144
-1 -1 3000 1;
#X obj 198 346 f;
#X obj 206 206 vsl 15 128 0 127 0 0 empty empty empty 0 -9 0 10 -262144
-1 -1 3800 1;
#X obj 232 346 f;
#X obj 236 196 vsl 15 128 0 127 0 0 empty empty empty 0 -9 0 10 -262144
-1 -1 2300 1;
#X obj 257 344 f;
#X obj 269 199 vsl 15 128 0 127 0 0 empty empty empty 0 -9 0 10 -262144
-1 -1 2500 1;
#X obj 288 341 f;
#X obj 309 193 vsl 15 128 0 127 0 0 empty empty empty 0 -9 0 10 -262144
-1 -1 2800 1;
#X obj 323 341 f;
#X obj 336 198 vsl 15 128 0 127 0 0 empty empty empty 0 -9 0 10 -262144
-1 -1 2500 1;
#X obj 353 342 f;
#X obj 372 195 vsl 15 128 0 127 0 0 empty empty empty 0 -9 0 10 -262144
-1 -1 2700 1;
#X obj 391 341 f;
#X obj 404 198 vsl 15 128 0 127 0 0 empty empty empty 0 -9 0 10 -262144
-1 -1 2200 1;
#X obj 424 342 f;
#X obj 437 199 vsl 15 128 0 127 0 0 empty empty empty 0 -9 0 10 -262144
-1 -1 3200 1;
#X obj 461 345 f;
#X obj 474 202 vsl 15 128 0 127 0 0 empty empty empty 0 -9 0 10 -262144
-1 -1 4000 1;
#X obj 494 346 f;
#X obj 507 203 vsl 15 128 0 127 0 0 empty empty empty 0 -9 0 10 -262144
-1 -1 5400 1;
#X obj -50 436 phasor~;
#X obj -48 487 bp~ 220 5;
#X obj -44 516 dac~;
#X obj 11 451 * 1.5;
#X floatatom 245 69 5 0 0 0 - - -;
#X obj 101 26 / 2;
#X connect 0 0 4 0;
#X connect 1 0 8 0;
#X connect 2 0 1 0;
#X connect 3 0 5 0;
#X connect 4 0 49 0;
#X connect 5 0 6 0;
#X connect 6 0 7 0;
#X connect 6 0 2 0;
#X connect 7 0 6 1;
#X connect 8 0 9 0;
#X connect 8 1 12 0;
#X connect 8 2 14 0;
#X connect 8 3 16 0;
#X connect 8 4 18 0;
#X connect 8 5 20 0;
#X connect 8 6 22 0;
#X connect 8 7 24 0;
#X connect 8 8 26 0;
#X connect 8 9 28 0;
#X connect 8 10 30 0;
#X connect 8 11 32 0;
#X connect 8 12 34 0;
#X connect 8 13 36 0;
#X connect 8 14 38 0;
#X connect 8 15 40 0;
#X connect 8 16 42 0;
#X connect 9 0 11 0;
#X connect 10 0 9 1;
#X connect 11 0 44 0;
#X connect 11 0 47 0;
#X connect 12 0 11 0;
#X connect 13 0 12 1;
#X connect 14 0 11 0;
#X connect 15 0 14 1;
#X connect 16 0 11 0;
#X connect 17 0 16 1;
#X connect 18 0 11 0;
#X connect 19 0 18 1;
#X connect 20 0 11 0;
#X connect 21 0 20 1;
#X connect 22 0 11 0;
#X connect 23 0 22 1;
#X connect 24 0 11 0;
#X connect 25 0 24 1;
#X connect 26 0 11 0;
#X connect 27 0 26 1;
#X connect 28 0 11 0;
#X connect 29 0 28 1;
#X connect 30 0 11 0;
#X connect 31 0 30 1;
#X connect 32 0 11 0;
#X connect 33 0 32 1;
#X connect 34 0 11 0;
#X connect 35 0 34 1;
#X connect 36 0 11 0;
#X connect 37 0 36 1;
#X connect 38 0 11 0;
#X connect 39 0 38 1;
#X connect 40 0 11 0;
#X connect 41 0 40 1;
#X connect 42 0 11 0;
#X connect 43 0 42 1;
#X connect 44 0 45 0;
#X connect 45 0 46 0;
#X connect 45 0 46 1;
#X connect 47 0 45 1;
#X connect 48 0 5 1;
#X connect 49 0 48 0;
